<svg xmlns="http://www.w3.org/2000/svg" xml:space="preserve" width="209.974mm" height="199.979mm" version="1.1" style="shape-rendering:geometricPrecision; text-rendering:geometricPrecision; image-rendering:optimizeQuality; fill-rule:evenodd; clip-rule:evenodd"
viewBox="0 0 5554.17 5289.8"
 xmlns:xlink="http://www.w3.org/1999/xlink"
 enable-background="new 0 0 32 32">
 <defs>
  <style type="text/css">
   <![CDATA[
    .fil0 {fill:white}
   ]]>
  </style>
 </defs>
 <g id="Camada_x0020_1">
  <metadata id="CorelCorpID_0Corel-Layer"/>
  <g id="_2383125454512">
   <g id="Outline_copy_2">
    <g>
     <path class="fil0" d="M2848.43 4111.31l0 -227.4c225.32,-37.15 345.62,-199.11 345.62,-371.83 0,-194.59 -113.7,-308.47 -339.02,-400.3 -190.25,-78.81 -271.14,-135.57 -271.14,-249.45 0,-87.49 63.36,-188 231.91,-188 139.91,0 229.66,48.08 275.49,74.3l54.68 -144.43c-63.36,-37.15 -153.11,-72.21 -284.34,-76.55l0 -212.13 -135.57 0 0 220.98c-201.19,32.81 -330.17,170.64 -330.17,352.21 0,190.25 137.83,290.94 360.89,378.25 161.78,65.62 247.19,139.91 247.19,260.39 0,124.64 -105.02,214.38 -260.21,214.38 -122.55,0 -236.26,-41.66 -315.06,-94.09l-52.42 146.51c76.55,54.68 207.79,94.09 334.68,96.17l0 220.98 137.48 -0z"/>
     <path class="fil0" d="M200.84 1684.87c-0.87,0.52 -1.56,1.04 -2.43,1.74 -29.51,19.79 56.94,72.73 115.26,78.46 3.47,0.7 7.46,1.91 10.24,1.91 1668.54,0 3337.26,0 5005.8,0 51.73,0 27.95,-39.58 1.74,-57.28 -834.27,-559.31 -1668.54,-1118.61 -2502.99,-1678.09 -28.12,-18.75 -93.74,-45.48 -127.07,-23.09 -832.71,558.09 -1665.24,1116.18 -2497.78,1674.44 -1.21,0.52 -1.91,1.21 -2.78,1.91zm2605.75 -1572.03c402.03,269.59 804.07,539 1206.1,808.58 287.99,193.03 575.8,386.06 863.61,579.1 83.67,56.07 171.33,134.53 263.34,176.54 6.25,2.95 10.07,4.51 15.45,6.77 -398.74,37.15 -825.07,-4.34 -1222.59,-4.34 -751.47,0 -1502.76,0 -2254.23,0 -402.9,0 -805.63,0 -1208.53,0 779.07,-522.16 1557.97,-1044.32 2336.86,-1566.64z"/>
     <path class="fil0" d="M-0 4720.78c0,174.8 0,349.61 0,524.41 0,34.37 75.69,49.82 126.89,43.05 1786.93,0 3573.86,0 5360.79,0 14.41,0 66.48,-3.65 66.48,-27.77 0,-174.8 0,-349.61 0,-524.41 0,-38.71 -84.02,-43.05 -106.41,-43.05 -1793.7,0 -3587.57,0 -5381.28,0 -14.41,0 -66.48,3.65 -66.48,27.77zm135.57 43.05c88.53,-45.31 321.66,0 419.39,0 617.63,0 1235.27,0 1852.9,0 990.67,0 1981.18,0 2971.85,0 -4.51,119.43 -23.09,259.17 1.74,368.01 21.7,95.82 48.26,80.02 37.5,85.58 -88.53,45.31 -321.66,0 -419.39,0 -617.63,0 -1235.27,0 -1852.9,0 -990.67,0 -1981.18,0 -2971.85,0 4.51,-119.43 23.09,-259.17 -1.74,-368.01 -21.87,-95.99 -48.26,-80.02 -37.5,-85.58z"/>
     <path class="fil0" d="M585.35 2140.2c-5.73,0 -31.77,4.34 -31.77,15.62 0,687.07 0,1374.31 0,2061.37 0,52.08 94.78,68.91 133.49,68.91 174.8,0 349.61,0 524.41,0 1.21,0 1.21,-0.35 2.26,-0.35 4.69,-0.17 8.16,-1.04 11.81,-1.91 2.95,-0.7 6.94,-1.04 8.68,-2.08 5.38,-2.6 8.85,-6.08 8.85,-11.11 0,-687.07 0,-1374.31 0,-2061.37 0,-52.08 -94.78,-68.91 -133.49,-68.91 -174.63,-0.17 -349.44,-0.17 -524.24,-0.17zm116.3 84.54c23.09,-18.57 145.99,0 169.94,0 68.74,0 137.66,0 206.4,0 0,658.94 0,1317.89 0,1976.84 -119.78,0 -239.38,0 -359.16,0 0,-440.22 0,-880.62 0,-1320.84 0,-152.06 -67.7,-495.94 0,-635.16 11.98,-24.65 0.35,-34.89 -17.19,-20.83z"/>
     <path class="fil0" d="M1398.09 2140.2c-5.73,0 -31.77,4.34 -31.77,15.45 0,687.07 0,1374.31 0,2061.37 0,52.08 94.78,68.91 133.49,68.91 174.8,0 349.61,0 524.41,0 1.21,0 1.21,-0.35 2.43,-0.35 4.69,-0.17 8.16,-1.04 11.81,-1.91 2.95,-0.7 6.94,-1.04 8.68,-2.08 5.38,-2.6 8.85,-6.08 8.85,-11.11 0,-687.07 0,-1374.31 0,-2061.37 0,-52.08 -94.78,-68.91 -133.49,-68.91 -174.81,0 -349.61,0 -524.42,0zm116.31 84.54c23.09,-18.57 145.99,0 169.94,0 68.74,0 137.66,0 206.4,0 0,658.94 0,1317.89 0,1976.84 -119.78,0 -239.56,0 -359.16,0 0,-440.22 0,-880.62 0,-1320.84 0,-152.06 -67.7,-495.94 0,-635.16 11.98,-24.48 0.35,-34.89 -17.19,-20.83z"/>
     <path class="fil0" d="M3598.86 2145.93c-24.48,0 -103.81,11.11 -103.81,49.13 0,687.07 0,1374.31 0,2061.37 0,24.13 55.03,23.78 67.87,23.78 165.95,0 332.08,0 498.03,0 50.86,5.73 130.19,-12.32 130.19,-49.13 0,-687.07 0,-1374.31 0,-2061.37 0,-24.13 -55.03,-23.78 -67.87,-23.78 -174.98,0 -349.61,0 -524.41,0zm67.87 2067.1c1.04,-4.69 2.26,-9.55 0,-18.4 -45.65,-186.61 0,-444.56 0,-635.16 0,-446.82 0,-893.81 0,-1340.63 78.64,0 157.27,0 235.91,0 9.03,0 69.96,-5.38 116.65,-5.73 -1.04,4.69 -2.26,9.55 0,18.4 45.65,186.61 0,444.56 0,635.16 0,446.82 0,893.81 0,1340.63 -78.64,0 -157.27,0 -235.91,0 -9.03,0 -69.96,5.38 -116.65,5.73z"/>
     <path class="fil0" d="M4394.77 2147.83c-18.75,0 -87.84,0.52 -87.84,32.12 0,687.07 0,1374.31 0,2061.37 0,31.25 67.18,37.32 85.75,37.32 167.69,0 335.2,0 502.72,0 49.47,6.42 109.36,-3.47 109.36,-32.12 0,-687.07 0,-1374.31 0,-2061.37 0,-31.25 -67.18,-37.32 -85.75,-37.32 -174.63,0 -349.44,0 -524.24,0zm436.58 2061.37c-117,0 -234,0 -350.82,0 0,-663.98 0,-1327.96 0,-1991.94 117,0 234,0 350.82,0 0,663.81 0,1327.79 0,1991.94z"/>
     <path class="fil0" d="M2227.68 1145.88c368.18,0 736.19,0 1104.37,0 205.36,0 199.45,-138.7 -5.73,-138.7 -368.18,0 -736.19,0 -1104.37,0 -205.18,-0.17 -199.28,138.7 5.73,138.7z"/>
    </g>
   </g>
  </g>
 </g>
</svg>
